<svg width="17" height="16" viewBox="0 0 17 16" fill="none" xmlns="http://www.w3.org/2000/svg">
<path fill-rule="evenodd" clip-rule="evenodd" d="M14 2.5H9.009L8.444 1.512C8.18172 1.05284 7.80273 0.671158 7.34544 0.405633C6.88814 0.140108 6.36879 0.000170562 5.84 0H3C2.20435 0 1.44129 0.316071 0.87868 0.87868C0.316071 1.44129 0 2.20435 0 3V12.5C0 13.2956 0.316071 14.0587 0.87868 14.6213C1.44129 15.1839 2.20435 15.5 3 15.5H14C14.7956 15.5 15.5587 15.1839 16.1213 14.6213C16.6839 14.0587 17 13.2956 17 12.5V5.5C17 4.70435 16.6839 3.94129 16.1213 3.37868C15.5587 2.81607 14.7956 2.5 14 2.5ZM3 13.5C2.73478 13.5 2.48043 13.3946 2.29289 13.2071C2.10536 13.0196 2 12.7652 2 12.5V3C2 2.73478 2.10536 2.48043 2.29289 2.29289C2.48043 2.10536 2.73478 2 3 2H5.84C6.01626 2.00006 6.18938 2.0467 6.34181 2.13521C6.49424 2.22372 6.62057 2.35095 6.708 2.504L7.56 3.996C7.6476 4.14935 7.77424 4.27677 7.92705 4.36529C8.07986 4.45382 8.2534 4.5003 8.43 4.5H14C14.2652 4.5 14.5196 4.60536 14.7071 4.79289C14.8946 4.98043 15 5.23478 15 5.5V12.5C15 12.7652 14.8946 13.0196 14.7071 13.2071C14.5196 13.3946 14.2652 13.5 14 13.5H3Z" fill="#CCC5B9"/>
</svg>
