<svg width="8" height="5" viewBox="0 0 8 5" fill="none" xmlns="http://www.w3.org/2000/svg">
<path d="M0.537565 1.35278L3.90861 4.77355C3.93166 4.797 3.95912 4.81567 3.9894 4.8285C4.01968 4.84132 4.05219 4.84805 4.08507 4.84829C4.11795 4.84853 4.15056 4.84228 4.18102 4.8299C4.21149 4.81752 4.23921 4.79925 4.2626 4.77614L7.68337 1.40509C7.71868 1.37038 7.74289 1.32597 7.75293 1.27749C7.76297 1.22901 7.75838 1.17864 7.73976 1.13276C7.72114 1.08689 7.68931 1.04758 7.64832 1.01981C7.60733 0.992049 7.55901 0.97708 7.5095 0.976807L0.717686 0.927085C0.668177 0.926634 0.61965 0.940894 0.578255 0.968056C0.536861 0.995218 0.504463 1.03406 0.48517 1.07966C0.465877 1.12525 0.460557 1.17555 0.469885 1.22418C0.479213 1.2728 0.502768 1.31756 0.537565 1.35278Z" fill="#CCC5B9"/>
</svg>
