<svg width="4" height="8" viewBox="0 0 4 8" fill="none" xmlns="http://www.w3.org/2000/svg">
<path d="M0.479998 7.64298L3.85097 4.22213C3.87408 4.19874 3.89234 4.17102 3.90472 4.14055C3.9171 4.11009 3.92335 4.07748 3.92311 4.0446C3.92287 4.01172 3.91614 3.9792 3.90332 3.94893C3.89049 3.91865 3.87182 3.89119 3.84837 3.86814L0.427517 0.497176C0.392296 0.46238 0.347537 0.438826 0.298913 0.429499C0.250289 0.420173 0.19999 0.425494 0.154393 0.444788C0.108797 0.464082 0.0699572 0.49648 0.0427961 0.537875C0.015635 0.57927 0.00137641 0.627798 0.0018287 0.677307L0.0517093 7.46912C0.0519843 7.51863 0.0669541 7.56695 0.0947202 7.60794C0.122486 7.64893 0.161798 7.68075 0.207673 7.69938C0.253548 7.718 0.303919 7.72258 0.352401 7.71254C0.400883 7.7025 0.445291 7.67829 0.479998 7.64298Z" fill="#CCC5B9"/>
</svg>
